<svg xmlns="http://www.w3.org/2000/svg" version="1.1" xmlns:xlink="http://www.w3.org/1999/xlink" xmlns:svgjs="http://svgjs.dev/svgjs" width="1440" height="560" preserveAspectRatio="none" viewBox="0 0 1440 560"><g mask="url(&quot;#SvgjsMask1008&quot;)" fill="none"><rect width="1440" height="560" x="0" y="0" fill="url(&quot;#SvgjsLinearGradient1009&quot;)"></rect><path d="M 0,463 C 57.6,385.4 172.8,82 288,75 C 403.2,68 460.8,413.8 576,428 C 691.2,442.2 748.8,175.4 864,146 C 979.2,116.6 1036.8,303 1152,281 C 1267.2,259 1382.4,85 1440,36L1440 560L0 560z" fill="#184a7e"></path><path d="M 0,330 C 96,277.6 288,74.8 480,68 C 672,61.2 768,276.2 960,296 C 1152,315.8 1344,192.8 1440,167L1440 560L0 560z" fill="#2264ab"></path></g><defs><mask id="SvgjsMask1008"><rect width="1440" height="560" fill="#ffffff"></rect></mask><linearGradient x1="15.28%" y1="-39.29%" x2="84.72%" y2="139.29%" gradientUnits="userSpaceOnUse" id="SvgjsLinearGradient1009"><stop stop-color="#0e2a47" offset="0"></stop><stop stop-color="rgba(140, 107, 224, 1)" offset="1"></stop></linearGradient></defs></svg>